<svg xmlns="http://www.w3.org/2000/svg" viewBox="0 0 600 400" width="600" height="400">
  <defs>
    <linearGradient id="bg" x1="0" y1="0" x2="0" y2="1">
      <stop offset="0%" stop-color="#f1faec"/>
      <stop offset="100%" stop-color="#d7efcb"/>
    </linearGradient>
    <radialGradient id="glow" cx="50%" cy="45%" r="55%">
      <stop offset="0%" stop-color="#ffffff" stop-opacity="0.55"/>
      <stop offset="100%" stop-color="#ffffff" stop-opacity="0"/>
    </radialGradient>
  </defs>
  <rect width="600" height="400" fill="url(#bg)"/>
  <circle cx="300" cy="200" r="170" fill="url(#glow)"/>
  <ellipse cx="300" cy="348" rx="140" ry="20" fill="#000000" opacity="0.10"/>
<path d="M300,120 C 268,120 258,166 268,196 C 216,230 200,300 254,336 C 300,366 356,352 376,306 C 396,258 366,214 332,196 C 342,166 332,120 300,120 Z" fill="#5aa83f"/><path d="M292,132 C 274,148 274,182 286,200 C 244,228 232,286 268,318 C 244,278 254,232 296,206 C 282,186 280,152 292,132 Z" fill="#79c65a" opacity="0.85"/><rect transform="translate(300,124) rotate(0)" x="-6.0" y="-34" width="12" height="34" rx="6.0" fill="#4a7c2f"/><path transform="translate(306,106) rotate(-26) scale(0.5)" d="M0,0 C 30,-34 78,-38 96,-8 C 66,26 22,28 0,0 Z" fill="#3f8f34"/>
</svg>
