<svg xmlns="http://www.w3.org/2000/svg" viewBox="0 0 600 400" width="600" height="400">
  <defs>
    <linearGradient id="bg" x1="0" y1="0" x2="0" y2="1">
      <stop offset="0%" stop-color="#eefaf0"/>
      <stop offset="100%" stop-color="#d2f0da"/>
    </linearGradient>
    <radialGradient id="glow" cx="50%" cy="45%" r="55%">
      <stop offset="0%" stop-color="#ffffff" stop-opacity="0.55"/>
      <stop offset="100%" stop-color="#ffffff" stop-opacity="0"/>
    </radialGradient>
  </defs>
  <rect width="600" height="400" fill="url(#bg)"/>
  <circle cx="300" cy="200" r="170" fill="url(#glow)"/>
  <ellipse cx="300" cy="348" rx="140" ry="20" fill="#000000" opacity="0.10"/>
<g transform="translate(300,230) rotate(-22)"><rect x="-186" y="-56" width="372" height="112" rx="56" fill="#2f7d3e"/><rect x="-186" y="-56" width="372" height="56" rx="28" fill="#3f9b4d" opacity="0.8"/><ellipse cx="-130" cy="-18" rx="7" ry="5" fill="#8fd39a" opacity="0.75"/><ellipse cx="-70" cy="10" rx="7" ry="5" fill="#8fd39a" opacity="0.75"/><ellipse cx="-10" cy="-22" rx="7" ry="5" fill="#8fd39a" opacity="0.75"/><ellipse cx="50" cy="12" rx="7" ry="5" fill="#8fd39a" opacity="0.75"/><ellipse cx="110" cy="-14" rx="7" ry="5" fill="#8fd39a" opacity="0.75"/><ellipse cx="150" cy="16" rx="7" ry="5" fill="#8fd39a" opacity="0.75"/><ellipse cx="-100" cy="24" rx="7" ry="5" fill="#8fd39a" opacity="0.75"/><ellipse cx="20" cy="26" rx="7" ry="5" fill="#8fd39a" opacity="0.75"/><ellipse cx="140" cy="-30" rx="7" ry="5" fill="#8fd39a" opacity="0.75"/></g><rect transform="translate(302,118) rotate(-22)" x="-6.0" y="-30" width="12" height="30" rx="6.0" fill="#4a7c2f"/><path transform="translate(316,104) rotate(-46) scale(0.5)" d="M0,0 C 30,-34 78,-38 96,-8 C 66,26 22,28 0,0 Z" fill="#3f8f34"/>
</svg>
